<?xml version="1.0" encoding="UTF-8" standalone="no"?>
<!DOCTYPE svg PUBLIC "-//W3C//DTD SVG 1.1//EN"
 "http://www.w3.org/Graphics/SVG/1.1/DTD/svg11.dtd">
<!-- Generated by graphviz version 2.38.0 (20140413.2041)
 -->
<!-- Title: controllers_diagram Pages: 1 -->
<svg width="573pt" height="536pt"
 viewBox="0.00 0.00 572.64 536.00" xmlns="http://www.w3.org/2000/svg" xmlns:xlink="http://www.w3.org/1999/xlink">
<g id="graph0" class="graph" transform="scale(1 1) rotate(0) translate(213.879 322.5)">
<title>controllers_diagram</title>
<polygon fill="white" stroke="none" points="-213.879,213.5 -213.879,-322.5 358.762,-322.5 358.762,213.5 -213.879,213.5"/>
<!-- _diagram_info -->
<g id="node1" class="node"><title>_diagram_info</title>
<text text-anchor="start" x="82.7883" y="120.9" font-family="Times,serif" font-size="13.00">Controllers diagram</text>
<text text-anchor="start" x="82.7883" y="133.9" font-family="Times,serif" font-size="13.00">Date: Jul 13 2015 &#45; 14:52</text>
<text text-anchor="start" x="82.7883" y="146.9" font-family="Times,serif" font-size="13.00">Migration version: 20121110170833</text>
<text text-anchor="start" x="82.7883" y="159.9" font-family="Times,serif" font-size="13.00">Generated by RailRoady 1.3.0</text>
<text text-anchor="start" x="82.7883" y="172.9" font-family="Times,serif" font-size="13.00">http://railroady.prestonlee.com</text>
</g>
<!-- ApplicationController -->
<g id="node2" class="node"><title>ApplicationController</title>
<path fill="none" stroke="black" d="M-197.821,209C-197.821,209 -82.1792,209 -82.1792,209 -76.1792,209 -70.1792,203 -70.1792,197 -70.1792,197 -70.1792,129 -70.1792,129 -70.1792,123 -76.1792,117 -82.1792,117 -82.1792,117 -197.821,117 -197.821,117 -203.821,117 -209.821,123 -209.821,129 -209.821,129 -209.821,197 -209.821,197 -209.821,203 -203.821,209 -197.821,209"/>
<text text-anchor="middle" x="-140" y="132.2" font-family="Times,serif" font-size="14.00">ApplicationController</text>
<polyline fill="none" stroke="black" points="-209.821,139 -70.1792,139 "/>
<polyline fill="none" stroke="black" points="-209.821,163 -70.1792,163 "/>
<polyline fill="none" stroke="black" points="-209.821,187 -70.1792,187 "/>
<text text-anchor="start" x="-201.821" y="202.2" font-family="Times,serif" font-size="14.00">_layout</text>
</g>
<!-- AssessmentStudentsController -->
<g id="node3" class="node"><title>AssessmentStudentsController</title>
<path fill="none" stroke="black" d="M87.0586,74C87.0586,74 250.941,74 250.941,74 256.941,74 262.941,68 262.941,62 262.941,62 262.941,-4 262.941,-4 262.941,-10 256.941,-16 250.941,-16 250.941,-16 87.0586,-16 87.0586,-16 81.0586,-16 75.0586,-10 75.0586,-4 75.0586,-4 75.0586,62 75.0586,62 75.0586,68 81.0586,74 87.0586,74"/>
<text text-anchor="middle" x="169" y="-0.8" font-family="Times,serif" font-size="14.00">AssessmentStudentsController</text>
<polyline fill="none" stroke="black" points="75.0586,6 262.941,6 "/>
<text text-anchor="start" x="83.0586" y="21.2" font-family="Times,serif" font-size="14.00">update</text>
<polyline fill="none" stroke="black" points="75.0586,28 262.941,28 "/>
<polyline fill="none" stroke="black" points="75.0586,52 262.941,52 "/>
<text text-anchor="start" x="83.0586" y="67.2" font-family="Times,serif" font-size="14.00">_layout</text>
</g>
<!-- AssessmentsController -->
<g id="node4" class="node"><title>AssessmentsController</title>
<path fill="none" stroke="black" d="M87.4482,-46C87.4482,-46 208.552,-46 208.552,-46 214.552,-46 220.552,-52 220.552,-58 220.552,-58 220.552,-178 220.552,-178 220.552,-184 214.552,-190 208.552,-190 208.552,-190 87.4482,-190 87.4482,-190 81.4482,-190 75.4482,-184 75.4482,-178 75.4482,-178 75.4482,-58 75.4482,-58 75.4482,-52 81.4482,-46 87.4482,-46"/>
<text text-anchor="middle" x="148" y="-174.8" font-family="Times,serif" font-size="14.00">AssessmentsController</text>
<polyline fill="none" stroke="black" points="75.4482,-168 220.552,-168 "/>
<text text-anchor="start" x="83.4482" y="-152.8" font-family="Times,serif" font-size="14.00">create</text>
<text text-anchor="start" x="83.4482" y="-138.8" font-family="Times,serif" font-size="14.00">edit</text>
<text text-anchor="start" x="83.4482" y="-124.8" font-family="Times,serif" font-size="14.00">new</text>
<text text-anchor="start" x="83.4482" y="-110.8" font-family="Times,serif" font-size="14.00">show</text>
<text text-anchor="start" x="83.4482" y="-96.8" font-family="Times,serif" font-size="14.00">update</text>
<polyline fill="none" stroke="black" points="75.4482,-90 220.552,-90 "/>
<text text-anchor="start" x="83.4482" y="-74.8" font-family="Times,serif" font-size="14.00">load_group</text>
<polyline fill="none" stroke="black" points="75.4482,-68 220.552,-68 "/>
<text text-anchor="start" x="83.4482" y="-52.8" font-family="Times,serif" font-size="14.00">_layout</text>
</g>
<!-- GroupsController -->
<g id="node5" class="node"><title>GroupsController</title>
<path fill="none" stroke="black" d="M-63.3828,-106C-63.3828,-106 27.3828,-106 27.3828,-106 33.3828,-106 39.3828,-112 39.3828,-118 39.3828,-118 39.3828,-268 39.3828,-268 39.3828,-274 33.3828,-280 27.3828,-280 27.3828,-280 -63.3828,-280 -63.3828,-280 -69.3828,-280 -75.3828,-274 -75.3828,-268 -75.3828,-268 -75.3828,-118 -75.3828,-118 -75.3828,-112 -69.3828,-106 -63.3828,-106"/>
<text text-anchor="middle" x="-18" y="-264.8" font-family="Times,serif" font-size="14.00">GroupsController</text>
<polyline fill="none" stroke="black" points="-75.3828,-258 39.3828,-258 "/>
<text text-anchor="start" x="-67.3828" y="-242.8" font-family="Times,serif" font-size="14.00">create</text>
<text text-anchor="start" x="-67.3828" y="-228.8" font-family="Times,serif" font-size="14.00">destroy</text>
<text text-anchor="start" x="-67.3828" y="-214.8" font-family="Times,serif" font-size="14.00">edit</text>
<text text-anchor="start" x="-67.3828" y="-200.8" font-family="Times,serif" font-size="14.00">index</text>
<text text-anchor="start" x="-67.3828" y="-186.8" font-family="Times,serif" font-size="14.00">new</text>
<text text-anchor="start" x="-67.3828" y="-172.8" font-family="Times,serif" font-size="14.00">show</text>
<text text-anchor="start" x="-67.3828" y="-158.8" font-family="Times,serif" font-size="14.00">update</text>
<polyline fill="none" stroke="black" points="-75.3828,-152 39.3828,-152 "/>
<polyline fill="none" stroke="black" points="-75.3828,-128 39.3828,-128 "/>
<text text-anchor="start" x="-67.3828" y="-112.8" font-family="Times,serif" font-size="14.00">_layout</text>
</g>
<!-- HomeController -->
<g id="node6" class="node"><title>HomeController</title>
<path fill="none" stroke="black" d="M-197.879,-211C-197.879,-211 -114.121,-211 -114.121,-211 -108.121,-211 -102.121,-217 -102.121,-223 -102.121,-223 -102.121,-291 -102.121,-291 -102.121,-297 -108.121,-303 -114.121,-303 -114.121,-303 -197.879,-303 -197.879,-303 -203.879,-303 -209.879,-297 -209.879,-291 -209.879,-291 -209.879,-223 -209.879,-223 -209.879,-217 -203.879,-211 -197.879,-211"/>
<text text-anchor="middle" x="-156" y="-287.8" font-family="Times,serif" font-size="14.00">HomeController</text>
<polyline fill="none" stroke="black" points="-209.879,-281 -102.121,-281 "/>
<polyline fill="none" stroke="black" points="-209.879,-257 -102.121,-257 "/>
<polyline fill="none" stroke="black" points="-209.879,-233 -102.121,-233 "/>
<text text-anchor="start" x="-201.879" y="-217.8" font-family="Times,serif" font-size="14.00">_layout</text>
</g>
<!-- IndicatorsController -->
<g id="node7" class="node"><title>IndicatorsController</title>
<path fill="none" stroke="black" d="M237.238,-226C237.238,-226 342.762,-226 342.762,-226 348.762,-226 354.762,-232 354.762,-238 354.762,-238 354.762,-304 354.762,-304 354.762,-310 348.762,-316 342.762,-316 342.762,-316 237.238,-316 237.238,-316 231.238,-316 225.238,-310 225.238,-304 225.238,-304 225.238,-238 225.238,-238 225.238,-232 231.238,-226 237.238,-226"/>
<text text-anchor="middle" x="290" y="-300.8" font-family="Times,serif" font-size="14.00">IndicatorsController</text>
<polyline fill="none" stroke="black" points="225.238,-294 354.762,-294 "/>
<text text-anchor="start" x="233.238" y="-278.8" font-family="Times,serif" font-size="14.00">index</text>
<polyline fill="none" stroke="black" points="225.238,-272 354.762,-272 "/>
<polyline fill="none" stroke="black" points="225.238,-248 354.762,-248 "/>
<text text-anchor="start" x="233.238" y="-232.8" font-family="Times,serif" font-size="14.00">_layout</text>
</g>
<!-- ProtectedController -->
<g id="node8" class="node"><title>ProtectedController</title>
<path fill="none" stroke="black" d="M86.793,-226C86.793,-226 189.207,-226 189.207,-226 195.207,-226 201.207,-232 201.207,-238 201.207,-238 201.207,-306 201.207,-306 201.207,-312 195.207,-318 189.207,-318 189.207,-318 86.793,-318 86.793,-318 80.793,-318 74.793,-312 74.793,-306 74.793,-306 74.793,-238 74.793,-238 74.793,-232 80.793,-226 86.793,-226"/>
<text text-anchor="middle" x="138" y="-302.8" font-family="Times,serif" font-size="14.00">ProtectedController</text>
<polyline fill="none" stroke="black" points="74.793,-296 201.207,-296 "/>
<polyline fill="none" stroke="black" points="74.793,-272 201.207,-272 "/>
<polyline fill="none" stroke="black" points="74.793,-248 201.207,-248 "/>
<text text-anchor="start" x="82.793" y="-232.8" font-family="Times,serif" font-size="14.00">_layout</text>
</g>
<!-- StudentsController -->
<g id="node9" class="node"><title>StudentsController</title>
<path fill="none" stroke="black" d="M-62.8862,89C-62.8862,89 34.8862,89 34.8862,89 40.8862,89 46.8862,83 46.8862,77 46.8862,77 46.8862,-59 46.8862,-59 46.8862,-65 40.8862,-71 34.8862,-71 34.8862,-71 -62.8862,-71 -62.8862,-71 -68.8862,-71 -74.8862,-65 -74.8862,-59 -74.8862,-59 -74.8862,77 -74.8862,77 -74.8862,83 -68.8862,89 -62.8862,89"/>
<text text-anchor="middle" x="-14" y="-55.8" font-family="Times,serif" font-size="14.00">StudentsController</text>
<polyline fill="none" stroke="black" points="-74.8862,-49 46.8862,-49 "/>
<text text-anchor="start" x="-66.8862" y="-33.8" font-family="Times,serif" font-size="14.00">create</text>
<text text-anchor="start" x="-66.8862" y="-19.8" font-family="Times,serif" font-size="14.00">edit</text>
<text text-anchor="start" x="-66.8862" y="-5.8" font-family="Times,serif" font-size="14.00">index</text>
<text text-anchor="start" x="-66.8862" y="8.2" font-family="Times,serif" font-size="14.00">new</text>
<text text-anchor="start" x="-66.8862" y="22.2" font-family="Times,serif" font-size="14.00">show</text>
<text text-anchor="start" x="-66.8862" y="36.2" font-family="Times,serif" font-size="14.00">update</text>
<polyline fill="none" stroke="black" points="-74.8862,43 46.8862,43 "/>
<polyline fill="none" stroke="black" points="-74.8862,67 46.8862,67 "/>
<text text-anchor="start" x="-66.8862" y="82.2" font-family="Times,serif" font-size="14.00">_layout</text>
</g>
</g>
</svg>
