<?xml version="1.0" encoding="UTF-8" standalone="no"?>
<!DOCTYPE svg PUBLIC "-//W3C//DTD SVG 1.1//EN"
 "http://www.w3.org/Graphics/SVG/1.1/DTD/svg11.dtd">
<!-- Generated by graphviz version 2.38.0 (20140413.2041)
 -->
<!-- Title: models_diagram Pages: 1 -->
<svg width="864pt" height="744pt"
 viewBox="0.00 0.00 864.26 744.00" xmlns="http://www.w3.org/2000/svg" xmlns:xlink="http://www.w3.org/1999/xlink">
<g id="graph0" class="graph" transform="scale(1 1) rotate(0) translate(4 740)">
<title>models_diagram</title>
<polygon fill="white" stroke="none" points="-4,4 -4,-740 860.265,-740 860.265,4 -4,4"/>
<!-- _diagram_info -->
<g id="node1" class="node"><title>_diagram_info</title>
<text text-anchor="start" x="8" y="-644.6" font-family="Times,serif" font-size="13.00">Models diagram</text>
<text text-anchor="start" x="8" y="-631.6" font-family="Times,serif" font-size="13.00">Date: Jul 13 2015 &#45; 14:52</text>
<text text-anchor="start" x="8" y="-618.6" font-family="Times,serif" font-size="13.00">Migration version: 20121110170833</text>
<text text-anchor="start" x="8" y="-605.6" font-family="Times,serif" font-size="13.00">Generated by RailRoady 1.3.0</text>
<text text-anchor="start" x="8" y="-592.6" font-family="Times,serif" font-size="13.00">http://railroady.prestonlee.com</text>
</g>
<!-- Assessment -->
<g id="node2" class="node"><title>Assessment</title>
<path fill="none" stroke="black" d="M655.317,-302.5C655.317,-302.5 793.107,-302.5 793.107,-302.5 799.107,-302.5 805.107,-308.5 805.107,-314.5 805.107,-314.5 805.107,-460.5 805.107,-460.5 805.107,-466.5 799.107,-472.5 793.107,-472.5 793.107,-472.5 655.317,-472.5 655.317,-472.5 649.317,-472.5 643.317,-466.5 643.317,-460.5 643.317,-460.5 643.317,-314.5 643.317,-314.5 643.317,-308.5 649.317,-302.5 655.317,-302.5"/>
<text text-anchor="middle" x="724.212" y="-457.3" font-family="Times,serif" font-size="14.00">Assessment</text>
<polyline fill="none" stroke="black" points="643.317,-450.5 805.107,-450.5 "/>
<text text-anchor="start" x="651.317" y="-435.3" font-family="Times,serif" font-size="14.00">id :integer</text>
<text text-anchor="start" x="651.317" y="-421.3" font-family="Times,serif" font-size="14.00">name :string</text>
<text text-anchor="start" x="651.317" y="-407.3" font-family="Times,serif" font-size="14.00">teacher_id :integer</text>
<text text-anchor="start" x="651.317" y="-393.3" font-family="Times,serif" font-size="14.00">group_id :integer</text>
<text text-anchor="start" x="651.317" y="-379.3" font-family="Times,serif" font-size="14.00">created_at :datetime</text>
<text text-anchor="start" x="651.317" y="-365.3" font-family="Times,serif" font-size="14.00">updated_at :datetime</text>
<text text-anchor="start" x="651.317" y="-351.3" font-family="Times,serif" font-size="14.00">lesson_datetime :datetime</text>
<text text-anchor="start" x="651.317" y="-337.3" font-family="Times,serif" font-size="14.00">indicator_id :integer</text>
<text text-anchor="start" x="651.317" y="-323.3" font-family="Times,serif" font-size="14.00">type :string</text>
<text text-anchor="start" x="651.317" y="-309.3" font-family="Times,serif" font-size="14.00">notes :string</text>
</g>
<!-- AssessmentStudent -->
<g id="node3" class="node"><title>AssessmentStudent</title>
<path fill="none" stroke="black" d="M472.031,-0.5C472.031,-0.5 590.393,-0.5 590.393,-0.5 596.393,-0.5 602.393,-6.5 602.393,-12.5 602.393,-12.5 602.393,-116.5 602.393,-116.5 602.393,-122.5 596.393,-128.5 590.393,-128.5 590.393,-128.5 472.031,-128.5 472.031,-128.5 466.031,-128.5 460.031,-122.5 460.031,-116.5 460.031,-116.5 460.031,-12.5 460.031,-12.5 460.031,-6.5 466.031,-0.5 472.031,-0.5"/>
<text text-anchor="middle" x="531.212" y="-113.3" font-family="Times,serif" font-size="14.00">AssessmentStudent</text>
<polyline fill="none" stroke="black" points="460.031,-106.5 602.393,-106.5 "/>
<text text-anchor="start" x="468.031" y="-91.3" font-family="Times,serif" font-size="14.00">id :integer</text>
<text text-anchor="start" x="468.031" y="-77.3" font-family="Times,serif" font-size="14.00">assessment_id :integer</text>
<text text-anchor="start" x="468.031" y="-63.3" font-family="Times,serif" font-size="14.00">student_id :integer</text>
<text text-anchor="start" x="468.031" y="-49.3" font-family="Times,serif" font-size="14.00">created_at :datetime</text>
<text text-anchor="start" x="468.031" y="-35.3" font-family="Times,serif" font-size="14.00">updated_at :datetime</text>
<text text-anchor="start" x="468.031" y="-21.3" font-family="Times,serif" font-size="14.00">score :integer</text>
<text text-anchor="start" x="468.031" y="-7.3" font-family="Times,serif" font-size="14.00">notes :string</text>
</g>
<!-- Assessment&#45;&gt;AssessmentStudent -->
<g id="edge1" class="edge"><title>Assessment&#45;&gt;AssessmentStudent</title>
<path fill="none" stroke="#5507f7" d="M738.699,-294.181C740.679,-251.866 735.989,-202.83 712.212,-165 689.519,-128.896 648.85,-104.863 611.804,-89.4784"/>
<ellipse fill="none" stroke="#5507f7" cx="738.464" cy="-298.28" rx="4" ry="4"/>
<polygon fill="#5507f7" stroke="#5507f7" points="611.762,-89.462 604.146,-81.5725 607.119,-87.6066 602.476,-85.7512 602.476,-85.7512 602.476,-85.7512 607.119,-87.6066 600.806,-89.9299 611.762,-89.462 611.762,-89.462"/>
</g>
<!-- Student -->
<g id="node8" class="node"><title>Student</title>
<path fill="none" stroke="black" d="M523.158,-165.5C523.158,-165.5 691.265,-165.5 691.265,-165.5 697.265,-165.5 703.265,-171.5 703.265,-177.5 703.265,-177.5 703.265,-253.5 703.265,-253.5 703.265,-259.5 697.265,-265.5 691.265,-265.5 691.265,-265.5 523.158,-265.5 523.158,-265.5 517.158,-265.5 511.158,-259.5 511.158,-253.5 511.158,-253.5 511.158,-177.5 511.158,-177.5 511.158,-171.5 517.158,-165.5 523.158,-165.5"/>
<text text-anchor="middle" x="607.212" y="-250.3" font-family="Times,serif" font-size="14.00">Student</text>
<polyline fill="none" stroke="black" points="511.158,-243.5 703.265,-243.5 "/>
<text text-anchor="start" x="519.158" y="-228.3" font-family="Times,serif" font-size="14.00">id :integer</text>
<text text-anchor="start" x="519.158" y="-214.3" font-family="Times,serif" font-size="14.00">name :string</text>
<text text-anchor="start" x="519.158" y="-200.3" font-family="Times,serif" font-size="14.00">created_at :datetime</text>
<text text-anchor="start" x="519.158" y="-186.3" font-family="Times,serif" font-size="14.00">updated_at :datetime</text>
<text text-anchor="start" x="519.158" y="-172.3" font-family="Times,serif" font-size="14.00">prior_knowledge_level :integer</text>
</g>
<!-- Assessment&#45;&gt;Student -->
<g id="edge2" class="edge"><title>Assessment&#45;&gt;Student</title>
<path fill="none" stroke="#4613a5" d="M660.533,-293.976C655.957,-287.327 651.423,-280.739 647.046,-274.378"/>
<polygon fill="#4613a5" stroke="#4613a5" points="660.728,-294.258 662.69,-305.047 663.562,-298.377 666.397,-302.496 666.397,-302.496 666.397,-302.496 663.562,-298.377 670.104,-299.945 660.728,-294.258 660.728,-294.258"/>
<polygon fill="#4613a5" stroke="#4613a5" points="646.852,-274.098 644.89,-263.309 644.018,-269.979 641.183,-265.86 641.183,-265.86 641.183,-265.86 644.018,-269.979 637.476,-268.411 646.852,-274.098 646.852,-274.098"/>
</g>
<!-- Group -->
<g id="node4" class="node"><title>Group</title>
<path fill="none" stroke="black" d="M560.706,-579.5C560.706,-579.5 669.717,-579.5 669.717,-579.5 675.717,-579.5 681.717,-585.5 681.717,-591.5 681.717,-591.5 681.717,-653.5 681.717,-653.5 681.717,-659.5 675.717,-665.5 669.717,-665.5 669.717,-665.5 560.706,-665.5 560.706,-665.5 554.706,-665.5 548.706,-659.5 548.706,-653.5 548.706,-653.5 548.706,-591.5 548.706,-591.5 548.706,-585.5 554.706,-579.5 560.706,-579.5"/>
<text text-anchor="middle" x="615.212" y="-650.3" font-family="Times,serif" font-size="14.00">Group</text>
<polyline fill="none" stroke="black" points="548.706,-643.5 681.717,-643.5 "/>
<text text-anchor="start" x="556.706" y="-628.3" font-family="Times,serif" font-size="14.00">id :integer</text>
<text text-anchor="start" x="556.706" y="-614.3" font-family="Times,serif" font-size="14.00">name :string</text>
<text text-anchor="start" x="556.706" y="-600.3" font-family="Times,serif" font-size="14.00">created_at :datetime</text>
<text text-anchor="start" x="556.706" y="-586.3" font-family="Times,serif" font-size="14.00">updated_at :datetime</text>
</g>
<!-- Group&#45;&gt;Assessment -->
<g id="edge5" class="edge"><title>Group&#45;&gt;Assessment</title>
<path fill="none" stroke="#bd1a75" d="M638.463,-571.798C650.66,-545.726 666.01,-512.912 680.341,-482.279"/>
<ellipse fill="none" stroke="#bd1a75" cx="636.646" cy="-575.682" rx="4.00002" ry="4.00002"/>
<polygon fill="#bd1a75" stroke="#bd1a75" points="680.513,-481.91 688.827,-474.759 682.632,-477.381 684.751,-472.853 684.751,-472.853 684.751,-472.853 682.632,-477.381 680.675,-470.946 680.513,-481.91 680.513,-481.91"/>
</g>
<!-- GroupStudent -->
<g id="node5" class="node"><title>GroupStudent</title>
<path fill="none" stroke="black" d="M729.706,-14.5C729.706,-14.5 838.717,-14.5 838.717,-14.5 844.717,-14.5 850.717,-20.5 850.717,-26.5 850.717,-26.5 850.717,-102.5 850.717,-102.5 850.717,-108.5 844.717,-114.5 838.717,-114.5 838.717,-114.5 729.706,-114.5 729.706,-114.5 723.706,-114.5 717.706,-108.5 717.706,-102.5 717.706,-102.5 717.706,-26.5 717.706,-26.5 717.706,-20.5 723.706,-14.5 729.706,-14.5"/>
<text text-anchor="middle" x="784.212" y="-99.3" font-family="Times,serif" font-size="14.00">GroupStudent</text>
<polyline fill="none" stroke="black" points="717.706,-92.5 850.717,-92.5 "/>
<text text-anchor="start" x="725.706" y="-77.3" font-family="Times,serif" font-size="14.00">id :integer</text>
<text text-anchor="start" x="725.706" y="-63.3" font-family="Times,serif" font-size="14.00">group_id :integer</text>
<text text-anchor="start" x="725.706" y="-49.3" font-family="Times,serif" font-size="14.00">student_id :integer</text>
<text text-anchor="start" x="725.706" y="-35.3" font-family="Times,serif" font-size="14.00">created_at :datetime</text>
<text text-anchor="start" x="725.706" y="-21.3" font-family="Times,serif" font-size="14.00">updated_at :datetime</text>
</g>
<!-- Group&#45;&gt;GroupStudent -->
<g id="edge3" class="edge"><title>Group&#45;&gt;GroupStudent</title>
<path fill="none" stroke="#9a2b6d" d="M637.992,-572.296C650.538,-550.072 668.091,-525.219 690.212,-509 736.491,-475.067 779.751,-518.888 814.212,-473 891.197,-370.485 844.534,-209.625 810.436,-123.888"/>
<ellipse fill="none" stroke="#9a2b6d" cx="636.018" cy="-575.898" rx="4.00002" ry="4.00002"/>
<polygon fill="#9a2b6d" stroke="#9a2b6d" points="810.416,-123.838 810.833,-112.88 808.539,-119.204 806.662,-114.57 806.662,-114.57 806.662,-114.57 808.539,-119.204 802.491,-116.259 810.416,-123.838 810.416,-123.838"/>
</g>
<!-- Lesson -->
<g id="node7" class="node"><title>Lesson</title>
<path fill="none" stroke="black" d="M257.317,-302.5C257.317,-302.5 395.107,-302.5 395.107,-302.5 401.107,-302.5 407.107,-308.5 407.107,-314.5 407.107,-314.5 407.107,-460.5 407.107,-460.5 407.107,-466.5 401.107,-472.5 395.107,-472.5 395.107,-472.5 257.317,-472.5 257.317,-472.5 251.317,-472.5 245.317,-466.5 245.317,-460.5 245.317,-460.5 245.317,-314.5 245.317,-314.5 245.317,-308.5 251.317,-302.5 257.317,-302.5"/>
<text text-anchor="middle" x="326.212" y="-457.3" font-family="Times,serif" font-size="14.00">Lesson</text>
<polyline fill="none" stroke="black" points="245.317,-450.5 407.107,-450.5 "/>
<text text-anchor="start" x="253.317" y="-435.3" font-family="Times,serif" font-size="14.00">id :integer</text>
<text text-anchor="start" x="253.317" y="-421.3" font-family="Times,serif" font-size="14.00">name :string</text>
<text text-anchor="start" x="253.317" y="-407.3" font-family="Times,serif" font-size="14.00">teacher_id :integer</text>
<text text-anchor="start" x="253.317" y="-393.3" font-family="Times,serif" font-size="14.00">group_id :integer</text>
<text text-anchor="start" x="253.317" y="-379.3" font-family="Times,serif" font-size="14.00">created_at :datetime</text>
<text text-anchor="start" x="253.317" y="-365.3" font-family="Times,serif" font-size="14.00">updated_at :datetime</text>
<text text-anchor="start" x="253.317" y="-351.3" font-family="Times,serif" font-size="14.00">lesson_datetime :datetime</text>
<text text-anchor="start" x="253.317" y="-337.3" font-family="Times,serif" font-size="14.00">indicator_id :integer</text>
<text text-anchor="start" x="253.317" y="-323.3" font-family="Times,serif" font-size="14.00">type :string</text>
<text text-anchor="start" x="253.317" y="-309.3" font-family="Times,serif" font-size="14.00">notes :string</text>
</g>
<!-- Group&#45;&gt;Lesson -->
<g id="edge6" class="edge"><title>Group&#45;&gt;Lesson</title>
<path fill="none" stroke="#e5d77d" d="M548.379,-574.514C509.058,-546.166 458.845,-508.727 416.212,-473 415.842,-472.69 415.472,-472.379 415.102,-472.068"/>
<ellipse fill="none" stroke="#e5d77d" cx="551.843" cy="-577.005" rx="4.00002" ry="4.00002"/>
<polygon fill="#e5d77d" stroke="#e5d77d" points="414.876,-471.875 410.195,-461.959 411.074,-468.628 407.272,-465.38 407.272,-465.38 407.272,-465.38 411.074,-468.628 404.35,-468.802 414.876,-471.875 414.876,-471.875"/>
</g>
<!-- Group&#45;&gt;Student -->
<g id="edge4" class="edge"><title>Group&#45;&gt;Student</title>
<path fill="none" stroke="#721c3f" d="M614.177,-569.133C612.689,-493.809 609.953,-355.26 608.389,-276.106"/>
<polygon fill="#721c3f" stroke="#721c3f" points="614.181,-569.306 609.879,-579.393 614.279,-574.305 614.378,-579.304 614.378,-579.304 614.378,-579.304 614.279,-574.305 618.877,-579.215 614.181,-569.306 614.181,-569.306"/>
<polygon fill="#721c3f" stroke="#721c3f" points="608.383,-275.813 612.685,-265.726 608.285,-270.814 608.186,-265.815 608.186,-265.815 608.186,-265.815 608.285,-270.814 603.687,-265.904 608.383,-275.813 608.383,-275.813"/>
</g>
<!-- TeacherJudgement -->
<g id="node10" class="node"><title>TeacherJudgement</title>
<path fill="none" stroke="black" d="M437.317,-302.5C437.317,-302.5 575.107,-302.5 575.107,-302.5 581.107,-302.5 587.107,-308.5 587.107,-314.5 587.107,-314.5 587.107,-460.5 587.107,-460.5 587.107,-466.5 581.107,-472.5 575.107,-472.5 575.107,-472.5 437.317,-472.5 437.317,-472.5 431.317,-472.5 425.317,-466.5 425.317,-460.5 425.317,-460.5 425.317,-314.5 425.317,-314.5 425.317,-308.5 431.317,-302.5 437.317,-302.5"/>
<text text-anchor="middle" x="506.212" y="-457.3" font-family="Times,serif" font-size="14.00">TeacherJudgement</text>
<polyline fill="none" stroke="black" points="425.317,-450.5 587.107,-450.5 "/>
<text text-anchor="start" x="433.317" y="-435.3" font-family="Times,serif" font-size="14.00">id :integer</text>
<text text-anchor="start" x="433.317" y="-421.3" font-family="Times,serif" font-size="14.00">name :string</text>
<text text-anchor="start" x="433.317" y="-407.3" font-family="Times,serif" font-size="14.00">teacher_id :integer</text>
<text text-anchor="start" x="433.317" y="-393.3" font-family="Times,serif" font-size="14.00">group_id :integer</text>
<text text-anchor="start" x="433.317" y="-379.3" font-family="Times,serif" font-size="14.00">created_at :datetime</text>
<text text-anchor="start" x="433.317" y="-365.3" font-family="Times,serif" font-size="14.00">updated_at :datetime</text>
<text text-anchor="start" x="433.317" y="-351.3" font-family="Times,serif" font-size="14.00">lesson_datetime :datetime</text>
<text text-anchor="start" x="433.317" y="-337.3" font-family="Times,serif" font-size="14.00">indicator_id :integer</text>
<text text-anchor="start" x="433.317" y="-323.3" font-family="Times,serif" font-size="14.00">type :string</text>
<text text-anchor="start" x="433.317" y="-309.3" font-family="Times,serif" font-size="14.00">notes :string</text>
</g>
<!-- Group&#45;&gt;TeacherJudgement -->
<g id="edge7" class="edge"><title>Group&#45;&gt;TeacherJudgement</title>
<path fill="none" stroke="#d8d8bb" d="M591.961,-571.798C579.764,-545.726 564.413,-512.912 550.083,-482.279"/>
<ellipse fill="none" stroke="#d8d8bb" cx="593.778" cy="-575.682" rx="4.00002" ry="4.00002"/>
<polygon fill="#d8d8bb" stroke="#d8d8bb" points="549.91,-481.91 549.749,-470.946 547.791,-477.381 545.673,-472.853 545.673,-472.853 545.673,-472.853 547.791,-477.381 541.597,-474.759 549.91,-481.91 549.91,-481.91"/>
</g>
<!-- Indicator -->
<g id="node6" class="node"><title>Indicator</title>
<path fill="none" stroke="black" d="M711.706,-551.5C711.706,-551.5 820.717,-551.5 820.717,-551.5 826.717,-551.5 832.717,-557.5 832.717,-563.5 832.717,-563.5 832.717,-681.5 832.717,-681.5 832.717,-687.5 826.717,-693.5 820.717,-693.5 820.717,-693.5 711.706,-693.5 711.706,-693.5 705.706,-693.5 699.706,-687.5 699.706,-681.5 699.706,-681.5 699.706,-563.5 699.706,-563.5 699.706,-557.5 705.706,-551.5 711.706,-551.5"/>
<text text-anchor="middle" x="766.212" y="-678.3" font-family="Times,serif" font-size="14.00">Indicator</text>
<polyline fill="none" stroke="black" points="699.706,-671.5 832.717,-671.5 "/>
<text text-anchor="start" x="707.706" y="-656.3" font-family="Times,serif" font-size="14.00">id :integer</text>
<text text-anchor="start" x="707.706" y="-642.3" font-family="Times,serif" font-size="14.00">name :string</text>
<text text-anchor="start" x="707.706" y="-628.3" font-family="Times,serif" font-size="14.00">level :integer</text>
<text text-anchor="start" x="707.706" y="-614.3" font-family="Times,serif" font-size="14.00">created_at :datetime</text>
<text text-anchor="start" x="707.706" y="-600.3" font-family="Times,serif" font-size="14.00">updated_at :datetime</text>
<text text-anchor="start" x="707.706" y="-586.3" font-family="Times,serif" font-size="14.00">key :string</text>
<text text-anchor="start" x="707.706" y="-572.3" font-family="Times,serif" font-size="14.00">description :text</text>
<text text-anchor="start" x="707.706" y="-558.3" font-family="Times,serif" font-size="14.00">position :integer</text>
</g>
<!-- Lesson&#45;&gt;AssessmentStudent -->
<g id="edge8" class="edge"><title>Lesson&#45;&gt;AssessmentStudent</title>
<path fill="none" stroke="#25e8e5" d="M384.39,-295.401C416.399,-245.28 455.55,-183.975 485.371,-137.28"/>
<ellipse fill="none" stroke="#25e8e5" cx="382.226" cy="-298.79" rx="4.00002" ry="4.00002"/>
<polygon fill="#25e8e5" stroke="#25e8e5" points="485.445,-137.165 494.619,-131.159 488.136,-132.951 490.827,-128.737 490.827,-128.737 490.827,-128.737 488.136,-132.951 487.034,-126.315 485.445,-137.165 485.445,-137.165"/>
</g>
<!-- Lesson&#45;&gt;Student -->
<g id="edge9" class="edge"><title>Lesson&#45;&gt;Student</title>
<path fill="none" stroke="#4d6c22" d="M415.359,-302.571C415.643,-302.38 415.927,-302.189 416.212,-302 442.544,-284.468 473.061,-268.971 501.87,-256.152"/>
<polygon fill="#4d6c22" stroke="#4d6c22" points="415.323,-302.596 404.555,-304.667 411.233,-305.472 407.144,-308.348 407.144,-308.348 407.144,-308.348 411.233,-305.472 409.732,-312.029 415.323,-302.596 415.323,-302.596"/>
<polygon fill="#4d6c22" stroke="#4d6c22" points="501.995,-256.097 512.961,-256.207 506.575,-254.091 511.155,-252.085 511.155,-252.085 511.155,-252.085 506.575,-254.091 509.35,-247.963 501.995,-256.097 501.995,-256.097"/>
</g>
<!-- Student&#45;&gt;AssessmentStudent -->
<g id="edge11" class="edge"><title>Student&#45;&gt;AssessmentStudent</title>
<path fill="none" stroke="#8cedd0" d="M578.426,-158.065C575.066,-151.477 571.603,-144.688 568.152,-137.923"/>
<ellipse fill="none" stroke="#8cedd0" cx="580.298" cy="-161.736" rx="4.00002" ry="4.00002"/>
<polygon fill="#8cedd0" stroke="#8cedd0" points="568.008,-137.64 567.473,-126.687 565.736,-133.186 563.464,-128.732 563.464,-128.732 563.464,-128.732 565.736,-133.186 559.455,-130.776 568.008,-137.64 568.008,-137.64"/>
</g>
<!-- Student&#45;&gt;GroupStudent -->
<g id="edge10" class="edge"><title>Student&#45;&gt;GroupStudent</title>
<path fill="none" stroke="#443f08" d="M672.075,-159.898C687.059,-147.284 703.018,-133.85 718.056,-121.19"/>
<ellipse fill="none" stroke="#443f08" cx="668.719" cy="-162.723" rx="4.00002" ry="4.00002"/>
<polygon fill="#443f08" stroke="#443f08" points="718.176,-121.09 728.724,-118.092 722.001,-117.869 725.826,-114.649 725.826,-114.649 725.826,-114.649 722.001,-117.869 722.928,-111.207 718.176,-121.09 718.176,-121.09"/>
</g>
<!-- Teacher -->
<g id="node9" class="node"><title>Teacher</title>
<path fill="none" stroke="black" d="M235.934,-509.5C235.934,-509.5 416.49,-509.5 416.49,-509.5 422.49,-509.5 428.49,-515.5 428.49,-521.5 428.49,-521.5 428.49,-723.5 428.49,-723.5 428.49,-729.5 422.49,-735.5 416.49,-735.5 416.49,-735.5 235.934,-735.5 235.934,-735.5 229.934,-735.5 223.934,-729.5 223.934,-723.5 223.934,-723.5 223.934,-521.5 223.934,-521.5 223.934,-515.5 229.934,-509.5 235.934,-509.5"/>
<text text-anchor="middle" x="326.212" y="-720.3" font-family="Times,serif" font-size="14.00">Teacher</text>
<polyline fill="none" stroke="black" points="223.934,-713.5 428.49,-713.5 "/>
<text text-anchor="start" x="231.934" y="-698.3" font-family="Times,serif" font-size="14.00">id :integer</text>
<text text-anchor="start" x="231.934" y="-684.3" font-family="Times,serif" font-size="14.00">email :string</text>
<text text-anchor="start" x="231.934" y="-670.3" font-family="Times,serif" font-size="14.00">encrypted_password :string</text>
<text text-anchor="start" x="231.934" y="-656.3" font-family="Times,serif" font-size="14.00">reset_password_token :string</text>
<text text-anchor="start" x="231.934" y="-642.3" font-family="Times,serif" font-size="14.00">reset_password_sent_at :datetime</text>
<text text-anchor="start" x="231.934" y="-628.3" font-family="Times,serif" font-size="14.00">remember_created_at :datetime</text>
<text text-anchor="start" x="231.934" y="-614.3" font-family="Times,serif" font-size="14.00">sign_in_count :integer</text>
<text text-anchor="start" x="231.934" y="-600.3" font-family="Times,serif" font-size="14.00">current_sign_in_at :datetime</text>
<text text-anchor="start" x="231.934" y="-586.3" font-family="Times,serif" font-size="14.00">last_sign_in_at :datetime</text>
<text text-anchor="start" x="231.934" y="-572.3" font-family="Times,serif" font-size="14.00">current_sign_in_ip :string</text>
<text text-anchor="start" x="231.934" y="-558.3" font-family="Times,serif" font-size="14.00">last_sign_in_ip :string</text>
<text text-anchor="start" x="231.934" y="-544.3" font-family="Times,serif" font-size="14.00">created_at :datetime</text>
<text text-anchor="start" x="231.934" y="-530.3" font-family="Times,serif" font-size="14.00">updated_at :datetime</text>
<text text-anchor="start" x="231.934" y="-516.3" font-family="Times,serif" font-size="14.00">name :string</text>
</g>
<!-- Teacher&#45;&gt;Lesson -->
<g id="edge12" class="edge"><title>Teacher&#45;&gt;Lesson</title>
<path fill="none" stroke="#4d299e" d="M326.212,-501.323C326.212,-495.136 326.212,-488.964 326.212,-482.875"/>
<ellipse fill="none" stroke="#4d299e" cx="326.212" cy="-505.436" rx="4" ry="4"/>
<polygon fill="#4d299e" stroke="#4d299e" points="326.212,-482.72 330.712,-472.72 326.212,-477.72 326.212,-472.72 326.212,-472.72 326.212,-472.72 326.212,-477.72 321.712,-472.72 326.212,-482.72 326.212,-482.72"/>
</g>
<!-- TeacherJudgement&#45;&gt;AssessmentStudent -->
<g id="edge13" class="edge"><title>TeacherJudgement&#45;&gt;AssessmentStudent</title>
<path fill="none" stroke="#3dcdce" d="M498.002,-294.344C496.129,-254.402 496.186,-207.211 502.212,-165 503.45,-156.329 505.265,-147.358 507.394,-138.514"/>
<ellipse fill="none" stroke="#3dcdce" cx="498.212" cy="-298.497" rx="4" ry="4"/>
<polygon fill="#3dcdce" stroke="#3dcdce" points="507.449,-138.297 514.278,-129.717 508.683,-133.452 509.917,-128.606 509.917,-128.606 509.917,-128.606 508.683,-133.452 505.556,-127.496 507.449,-138.297 507.449,-138.297"/>
</g>
<!-- TeacherJudgement&#45;&gt;Student -->
<g id="edge14" class="edge"><title>TeacherJudgement&#45;&gt;Student</title>
<path fill="none" stroke="#fa6a09" d="M561.356,-293.683C565.177,-287.252 568.961,-280.882 572.622,-274.72"/>
<polygon fill="#fa6a09" stroke="#fa6a09" points="561.228,-293.899 552.251,-300.198 558.674,-298.197 556.12,-302.496 556.12,-302.496 556.12,-302.496 558.674,-298.197 559.989,-304.795 561.228,-293.899 561.228,-293.899"/>
<polygon fill="#fa6a09" stroke="#fa6a09" points="572.778,-274.457 581.755,-268.159 575.332,-270.159 577.886,-265.86 577.886,-265.86 577.886,-265.86 575.332,-270.159 574.017,-263.562 572.778,-274.457 572.778,-274.457"/>
</g>
</g>
</svg>
