<?xml version="1.0" encoding="UTF-8" standalone="no"?>
<!DOCTYPE svg PUBLIC "-//W3C//DTD SVG 1.1//EN"
 "http://www.w3.org/Graphics/SVG/1.1/DTD/svg11.dtd">
<!-- Generated by graphviz version 2.38.0 (20140413.2041)
 -->
<!-- Title: models_diagram Pages: 1 -->
<svg width="698pt" height="297pt"
 viewBox="0.00 0.00 697.94 297.00" xmlns="http://www.w3.org/2000/svg" xmlns:xlink="http://www.w3.org/1999/xlink">
<g id="graph0" class="graph" transform="scale(1 1) rotate(0) translate(4 293)">
<title>models_diagram</title>
<polygon fill="white" stroke="none" points="-4,4 -4,-293 693.938,-293 693.938,4 -4,4"/>
<!-- _diagram_info -->
<g id="node1" class="node"><title>_diagram_info</title>
<text text-anchor="start" x="8" y="-274.6" font-family="Times,serif" font-size="13.00">Models diagram</text>
<text text-anchor="start" x="8" y="-261.6" font-family="Times,serif" font-size="13.00">Date: Jul 13 2015 &#45; 14:52</text>
<text text-anchor="start" x="8" y="-248.6" font-family="Times,serif" font-size="13.00">Migration version: 20121110170833</text>
<text text-anchor="start" x="8" y="-235.6" font-family="Times,serif" font-size="13.00">Generated by RailRoady 1.3.0</text>
<text text-anchor="start" x="8" y="-222.6" font-family="Times,serif" font-size="13.00">http://railroady.prestonlee.com</text>
</g>
<!-- Assessment -->
<g id="node2" class="node"><title>Assessment</title>
<ellipse fill="none" stroke="black" cx="575.212" cy="-162" rx="51.7346" ry="18"/>
<text text-anchor="middle" x="575.212" y="-157.8" font-family="Times,serif" font-size="14.00">Assessment</text>
</g>
<!-- AssessmentStudent -->
<g id="node3" class="node"><title>AssessmentStudent</title>
<ellipse fill="none" stroke="black" cx="425.212" cy="-18" rx="78.7798" ry="18"/>
<text text-anchor="middle" x="425.212" y="-13.8" font-family="Times,serif" font-size="14.00">AssessmentStudent</text>
</g>
<!-- Assessment&#45;&gt;AssessmentStudent -->
<g id="edge1" class="edge"><title>Assessment&#45;&gt;AssessmentStudent</title>
<path fill="none" stroke="#99c594" d="M565.042,-136.571C556.028,-117.204 541.333,-90.4255 522.212,-72 507.987,-58.293 489.519,-47.0399 472.519,-38.4835"/>
<ellipse fill="none" stroke="#99c594" cx="566.798" cy="-140.465" rx="4.00002" ry="4.00002"/>
<polygon fill="#99c594" stroke="#99c594" points="472.266,-38.361 465.221,-29.9574 467.764,-36.1849 463.262,-34.0089 463.262,-34.0089 463.262,-34.0089 467.764,-36.1849 461.304,-38.0604 472.266,-38.361 472.266,-38.361"/>
</g>
<!-- Student -->
<g id="node8" class="node"><title>Student</title>
<ellipse fill="none" stroke="black" cx="476.212" cy="-90" rx="37.2594" ry="18"/>
<text text-anchor="middle" x="476.212" y="-85.8" font-family="Times,serif" font-size="14.00">Student</text>
</g>
<!-- Assessment&#45;&gt;Student -->
<g id="edge2" class="edge"><title>Assessment&#45;&gt;Student</title>
<path fill="none" stroke="#42280b" d="M544.869,-139.546C532.094,-130.513 517.307,-120.057 504.734,-111.167"/>
<polygon fill="#42280b" stroke="#42280b" points="545.075,-139.691 550.642,-149.139 549.158,-142.578 553.24,-145.465 553.24,-145.465 553.24,-145.465 549.158,-142.578 555.838,-141.79 545.075,-139.691 545.075,-139.691"/>
<polygon fill="#42280b" stroke="#42280b" points="504.601,-111.073 499.034,-101.626 500.519,-108.187 496.436,-105.3 496.436,-105.3 496.436,-105.3 500.519,-108.187 493.838,-108.974 504.601,-111.073 504.601,-111.073"/>
</g>
<!-- Group -->
<g id="node4" class="node"><title>Group</title>
<ellipse fill="none" stroke="black" cx="495.212" cy="-252.5" rx="32.9081" ry="18"/>
<text text-anchor="middle" x="495.212" y="-248.3" font-family="Times,serif" font-size="14.00">Group</text>
</g>
<!-- Group&#45;&gt;Assessment -->
<g id="edge5" class="edge"><title>Group&#45;&gt;Assessment</title>
<path fill="none" stroke="#aeab38" d="M514.859,-229.765C526.605,-216.771 541.543,-200.246 553.618,-186.888"/>
<ellipse fill="none" stroke="#aeab38" cx="511.829" cy="-233.117" rx="4.00002" ry="4.00002"/>
<polygon fill="#aeab38" stroke="#aeab38" points="553.646,-186.857 563.69,-182.456 556.999,-183.148 560.352,-179.439 560.352,-179.439 560.352,-179.439 556.999,-183.148 557.014,-176.421 553.646,-186.857 553.646,-186.857"/>
</g>
<!-- GroupStudent -->
<g id="node5" class="node"><title>GroupStudent</title>
<ellipse fill="none" stroke="black" cx="630.212" cy="-18" rx="59.953" ry="18"/>
<text text-anchor="middle" x="630.212" y="-13.8" font-family="Times,serif" font-size="14.00">GroupStudent</text>
</g>
<!-- Group&#45;&gt;GroupStudent -->
<g id="edge3" class="edge"><title>Group&#45;&gt;GroupStudent</title>
<path fill="none" stroke="#fd7613" d="M516.956,-230.624C523.17,-225.373 530.175,-220.078 537.212,-216 577.719,-192.524 609.352,-218.348 636.212,-180 664.133,-140.137 651.327,-80.0846 640.258,-45.7037"/>
<ellipse fill="none" stroke="#fd7613" cx="513.564" cy="-233.604" rx="4.00002" ry="4.00002"/>
<polygon fill="#fd7613" stroke="#fd7613" points="640.147,-45.3758 641.186,-34.4593 638.536,-40.6422 636.926,-35.9087 636.926,-35.9087 636.926,-35.9087 638.536,-40.6422 632.666,-37.358 640.147,-45.3758 640.147,-45.3758"/>
</g>
<!-- Lesson -->
<g id="node7" class="node"><title>Lesson</title>
<ellipse fill="none" stroke="black" cx="262.212" cy="-162" rx="35.3216" ry="18"/>
<text text-anchor="middle" x="262.212" y="-157.8" font-family="Times,serif" font-size="14.00">Lesson</text>
</g>
<!-- Group&#45;&gt;Lesson -->
<g id="edge6" class="edge"><title>Group&#45;&gt;Lesson</title>
<path fill="none" stroke="#b40320" d="M461.21,-238.719C423.353,-224.47 360.361,-200.703 306.212,-180 303.869,-179.104 301.457,-178.18 299.026,-177.246"/>
<ellipse fill="none" stroke="#b40320" cx="465.151" cy="-240.202" rx="4.00001" ry="4.00001"/>
<polygon fill="#b40320" stroke="#b40320" points="298.994,-177.233 291.279,-169.44 294.328,-175.437 289.662,-173.64 289.662,-173.64 289.662,-173.64 294.328,-175.437 288.045,-177.839 298.994,-177.233 298.994,-177.233"/>
</g>
<!-- Group&#45;&gt;Student -->
<g id="edge4" class="edge"><title>Group&#45;&gt;Student</title>
<path fill="none" stroke="#c09bef" d="M492,-224.372C488.497,-194.776 482.921,-147.678 479.419,-118.095"/>
<polygon fill="#c09bef" stroke="#c09bef" points="492.003,-224.393 488.71,-234.853 492.59,-229.358 493.178,-234.324 493.178,-234.324 493.178,-234.324 492.59,-229.358 497.647,-233.795 492.003,-224.393 492.003,-224.393"/>
<polygon fill="#c09bef" stroke="#c09bef" points="479.406,-117.983 482.699,-107.524 478.818,-113.018 478.23,-108.053 478.23,-108.053 478.23,-108.053 478.818,-113.018 473.762,-108.582 479.406,-117.983 479.406,-117.983"/>
</g>
<!-- TeacherJudgement -->
<g id="node10" class="node"><title>TeacherJudgement</title>
<ellipse fill="none" stroke="black" cx="391.212" cy="-162" rx="76.0468" ry="18"/>
<text text-anchor="middle" x="391.212" y="-157.8" font-family="Times,serif" font-size="14.00">TeacherJudgement</text>
</g>
<!-- Group&#45;&gt;TeacherJudgement -->
<g id="edge7" class="edge"><title>Group&#45;&gt;TeacherJudgement</title>
<path fill="none" stroke="#bb043b" d="M471.576,-231.387C455.714,-217.889 434.777,-200.073 418.251,-186.009"/>
<ellipse fill="none" stroke="#bb043b" cx="474.992" cy="-234.294" rx="4.00002" ry="4.00002"/>
<polygon fill="#bb043b" stroke="#bb043b" points="418.149,-185.923 413.45,-176.015 414.341,-182.682 410.533,-179.442 410.533,-179.442 410.533,-179.442 414.341,-182.682 407.617,-182.869 418.149,-185.923 418.149,-185.923"/>
</g>
<!-- Indicator -->
<g id="node6" class="node"><title>Indicator</title>
<ellipse fill="none" stroke="black" cx="588.212" cy="-252.5" rx="42.0524" ry="18"/>
<text text-anchor="middle" x="588.212" y="-248.3" font-family="Times,serif" font-size="14.00">Indicator</text>
</g>
<!-- Lesson&#45;&gt;AssessmentStudent -->
<g id="edge8" class="edge"><title>Lesson&#45;&gt;AssessmentStudent</title>
<path fill="none" stroke="#36d2e2" d="M285.469,-140.739C315.216,-114.824 366.638,-70.027 398.121,-42.6005"/>
<ellipse fill="none" stroke="#36d2e2" cx="282.363" cy="-143.444" rx="4.00002" ry="4.00002"/>
<polygon fill="#36d2e2" stroke="#36d2e2" points="398.514,-42.2585 409.01,-39.0829 402.284,-38.9742 406.054,-35.6898 406.054,-35.6898 406.054,-35.6898 402.284,-38.9742 403.098,-32.2968 398.514,-42.2585 398.514,-42.2585"/>
</g>
<!-- Lesson&#45;&gt;Student -->
<g id="edge9" class="edge"><title>Lesson&#45;&gt;Student</title>
<path fill="none" stroke="#1b3f9a" d="M298.488,-146.767C301.094,-145.811 303.689,-144.88 306.212,-144 349.918,-128.763 400.649,-113.22 435.238,-102.941"/>
<polygon fill="#1b3f9a" stroke="#1b3f9a" points="298.463,-146.776 287.52,-146.072 293.781,-148.531 289.099,-150.286 289.099,-150.286 289.099,-150.286 293.781,-148.531 290.679,-154.5 298.463,-146.776 298.463,-146.776"/>
<polygon fill="#1b3f9a" stroke="#1b3f9a" points="435.399,-102.894 446.264,-104.371 440.193,-101.475 444.988,-100.056 444.988,-100.056 444.988,-100.056 440.193,-101.475 443.711,-95.741 435.399,-102.894 435.399,-102.894"/>
</g>
<!-- Student&#45;&gt;AssessmentStudent -->
<g id="edge11" class="edge"><title>Student&#45;&gt;AssessmentStudent</title>
<path fill="none" stroke="#57f9b7" d="M459.645,-66.2609C454.514,-59.2187 448.831,-51.4185 443.585,-44.2187"/>
<ellipse fill="none" stroke="#57f9b7" cx="462.028" cy="-69.5317" rx="4.00002" ry="4.00002"/>
<polygon fill="#57f9b7" stroke="#57f9b7" points="443.576,-44.2063 441.325,-33.474 440.632,-40.1651 437.688,-36.1239 437.688,-36.1239 437.688,-36.1239 440.632,-40.1651 434.051,-38.7738 443.576,-44.2063 443.576,-44.2063"/>
</g>
<!-- Student&#45;&gt;GroupStudent -->
<g id="edge10" class="edge"><title>Student&#45;&gt;GroupStudent</title>
<path fill="none" stroke="#44c0c1" d="M509.841,-73.7139C533.258,-63.0699 564.617,-48.816 589.456,-37.5254"/>
<ellipse fill="none" stroke="#44c0c1" cx="505.977" cy="-75.4702" rx="4.00002" ry="4.00002"/>
<polygon fill="#44c0c1" stroke="#44c0c1" points="589.523,-37.495 600.489,-37.4536 594.075,-35.426 598.626,-33.3569 598.626,-33.3569 598.626,-33.3569 594.075,-35.426 596.764,-29.2603 589.523,-37.495 589.523,-37.495"/>
</g>
<!-- Teacher -->
<g id="node9" class="node"><title>Teacher</title>
<ellipse fill="none" stroke="black" cx="262.212" cy="-252.5" rx="37.9172" ry="18"/>
<text text-anchor="middle" x="262.212" y="-248.3" font-family="Times,serif" font-size="14.00">Teacher</text>
</g>
<!-- Teacher&#45;&gt;Lesson -->
<g id="edge12" class="edge"><title>Teacher&#45;&gt;Lesson</title>
<path fill="none" stroke="#682ae4" d="M262.212,-226.189C262.212,-214.971 262.212,-201.752 262.212,-190.311"/>
<ellipse fill="none" stroke="#682ae4" cx="262.212" cy="-230.436" rx="4" ry="4"/>
<polygon fill="#682ae4" stroke="#682ae4" points="262.212,-190.011 266.712,-180.011 262.212,-185.011 262.212,-180.011 262.212,-180.011 262.212,-180.011 262.212,-185.011 257.712,-180.011 262.212,-190.011 262.212,-190.011"/>
</g>
<!-- TeacherJudgement&#45;&gt;AssessmentStudent -->
<g id="edge13" class="edge"><title>TeacherJudgement&#45;&gt;AssessmentStudent</title>
<path fill="none" stroke="#751d89" d="M397.215,-135.929C403.249,-110.725 412.523,-71.9942 418.724,-46.0947"/>
<ellipse fill="none" stroke="#751d89" cx="396.244" cy="-139.981" rx="4.00001" ry="4.00001"/>
<polygon fill="#751d89" stroke="#751d89" points="418.767,-45.9144 425.472,-37.2371 419.932,-41.0518 421.096,-36.1893 421.096,-36.1893 421.096,-36.1893 419.932,-41.0518 416.72,-35.1414 418.767,-45.9144 418.767,-45.9144"/>
</g>
<!-- TeacherJudgement&#45;&gt;Student -->
<g id="edge14" class="edge"><title>TeacherJudgement&#45;&gt;Student</title>
<path fill="none" stroke="#d425fe" d="M419.426,-137.765C429.424,-129.531 440.615,-120.315 450.402,-112.255"/>
<polygon fill="#d425fe" stroke="#d425fe" points="419.075,-138.054 408.495,-140.937 415.215,-141.232 411.355,-144.411 411.355,-144.411 411.355,-144.411 415.215,-141.232 414.216,-147.885 419.075,-138.054 419.075,-138.054"/>
<polygon fill="#d425fe" stroke="#d425fe" points="450.516,-112.161 461.096,-109.277 454.376,-108.982 458.236,-105.804 458.236,-105.804 458.236,-105.804 454.376,-108.982 455.375,-102.33 450.516,-112.161 450.516,-112.161"/>
</g>
</g>
</svg>
